<svg width="26" height="24" viewBox="0 0 26 24" fill="none" xmlns="http://www.w3.org/2000/svg">
<path d="M4.46155 6.14331C4.46155 6.90962 5.35156 7.64455 6.93578 8.18642C8.52 8.72829 10.6687 9.03271 12.9091 9.03271C15.1495 9.03271 17.2982 8.72829 18.8824 8.18642C20.4666 7.64455 21.3567 6.90962 21.3567 6.14331M4.46155 6.14331C4.46155 5.37699 5.35156 4.64206 6.93578 4.10019C8.52 3.55832 10.6687 3.25391 12.9091 3.25391C15.1495 3.25391 17.2982 3.55832 18.8824 4.10019C20.4666 4.64206 21.3567 5.37699 21.3567 6.14331M4.46155 6.14331V11.9221M21.3567 6.14331V11.9221M4.46155 11.9221C4.46155 12.6884 5.35156 13.4234 6.93578 13.9652C8.52 14.5071 10.6687 14.8115 12.9091 14.8115C15.1495 14.8115 17.2982 14.5071 18.8824 13.9652C20.4666 13.4234 21.3567 12.6884 21.3567 11.9221M4.46155 11.9221V17.7009C4.46155 18.4672 5.35156 19.2022 6.93578 19.744C8.52 20.2859 10.6687 20.5903 12.9091 20.5903C15.1495 20.5903 17.2982 20.2859 18.8824 19.744C20.4666 19.2022 21.3567 18.4672 21.3567 17.7009V11.9221" stroke="#01B574" stroke-width="2" stroke-linecap="round" stroke-linejoin="round"/>
</svg>
