<svg width="26" height="24" viewBox="0 0 26 24" fill="none" xmlns="http://www.w3.org/2000/svg">
<path d="M6.57349 21.019V19.0928C6.57349 18.071 7.01849 17.0911 7.8106 16.3686C8.60271 15.6461 9.67705 15.2402 10.7973 15.2402H15.021C16.1413 15.2402 17.2156 15.6461 18.0077 16.3686C18.7998 17.0911 19.2448 18.071 19.2448 19.0928V21.019M8.68537 7.53515C8.68537 8.55691 9.13038 9.53682 9.92249 10.2593C10.7146 10.9818 11.7889 11.3877 12.9092 11.3877C14.0294 11.3877 15.1037 10.9818 15.8958 10.2593C16.6879 9.53682 17.1329 8.55691 17.1329 7.53515C17.1329 6.5134 16.6879 5.53349 15.8958 4.811C15.1037 4.08851 14.0294 3.68262 12.9092 3.68262C11.7889 3.68262 10.7146 4.08851 9.92249 4.811C9.13038 5.53349 8.68537 6.5134 8.68537 7.53515Z" stroke="#4318FF" stroke-width="2" stroke-linecap="round" stroke-linejoin="round"/>
</svg>
