<svg width="24" height="24" viewBox="0 0 24 24" fill="none" xmlns="http://www.w3.org/2000/svg">
<path d="M20.7925 9.52343C21.5825 10.3135 21.5825 11.5944 20.7925 12.3844C20.0024 13.1744 18.7215 13.1744 17.9315 12.3844C17.1415 11.5944 17.1415 10.3135 17.9315 9.52343C18.7215 8.7334 20.0024 8.7334 20.7925 9.52343" stroke="#3C56A0" stroke-width="1.5" stroke-linecap="round" stroke-linejoin="round"/>
<path d="M14.2026 5.91236C15.4191 7.12884 15.4191 9.10115 14.2026 10.3176C12.9862 11.5341 11.0139 11.5341 9.79737 10.3176C8.58089 9.10116 8.58089 7.12885 9.79737 5.91236C11.0138 4.69588 12.9862 4.69588 14.2026 5.91236" stroke="#3C56A0" stroke-width="1.5" stroke-linecap="round" stroke-linejoin="round"/>
<path d="M6.06846 9.52343C6.85849 10.3135 6.85849 11.5944 6.06846 12.3844C5.27843 13.1744 3.99754 13.1744 3.20751 12.3844C2.41748 11.5944 2.41748 10.3135 3.20751 9.52343C3.99754 8.7334 5.27843 8.7334 6.06846 9.52343" stroke="#3C56A0" stroke-width="1.5" stroke-linecap="round" stroke-linejoin="round"/>
<path d="M23 19.0001V17.9041C23 16.5231 21.881 15.4041 20.5 15.4041H19.699" stroke="#3C56A0" stroke-width="1.5" stroke-linecap="round" stroke-linejoin="round"/>
<path d="M1 19.0001V17.9041C1 16.5231 2.119 15.4041 3.5 15.4041H4.301" stroke="#3C56A0" stroke-width="1.5" stroke-linecap="round" stroke-linejoin="round"/>
<path d="M17.339 18.9999V17.3989C17.339 15.4659 15.772 13.8989 13.839 13.8989H10.16C8.22703 13.8989 6.66003 15.4659 6.66003 17.3989V18.9999" stroke="#3C56A0" stroke-width="1.5" stroke-linecap="round" stroke-linejoin="round"/>
</svg>
