<svg width="20" height="20" viewBox="0 0 30 28" fill="none" xmlns="http://www.w3.org/2000/svg">
<path d="M29 4.86029C29 6.99228 22.732 8.72059 15 8.72059C7.26801 8.72059 1 6.99228 1 4.86029M29 4.86029C29 2.72831 22.732 1 15 1C7.26801 1 1 2.72831 1 4.86029M29 4.86029V23.3897C29 25.5217 22.732 27.25 15 27.25C7.26801 27.25 1 25.5217 1 23.3897V4.86029M29 11.0368C29 13.1687 22.732 14.8971 15 14.8971C7.26801 14.8971 1 13.1687 1 11.0368M29 17.2132C29 19.3452 22.732 21.0735 15 21.0735C7.26801 21.0735 1 19.3452 1 17.2132" stroke="black" stroke-width="1.5"/>
</svg>
