<svg width="24" height="24" viewBox="0 0 24 24" fill="none" xmlns="http://www.w3.org/2000/svg">
<path d="M18.1325 9.52343C18.9225 10.3135 18.9225 11.5944 18.1325 12.3844C17.3425 13.1744 16.0616 13.1744 15.2715 12.3844C14.4815 11.5944 14.4815 10.3135 15.2715 9.52343C16.0616 8.7334 17.3425 8.7334 18.1325 9.52343" stroke="#5D5FEF" stroke-width="1.5" stroke-linecap="round" stroke-linejoin="round"/>
<path d="M11.5426 5.91236C12.7591 7.12884 12.7591 9.10115 11.5426 10.3176C10.3261 11.5341 8.35383 11.5341 7.13734 10.3176C5.92086 9.10116 5.92086 7.12885 7.13734 5.91236C8.35382 4.69588 10.3261 4.69588 11.5426 5.91236" stroke="#5D5FEF" stroke-width="1.5" stroke-linecap="round" stroke-linejoin="round"/>
<path d="M20.34 19.0001V17.9041C20.34 16.5231 19.221 15.4041 17.84 15.4041H17.039" stroke="#5D5FEF" stroke-width="1.5" stroke-linecap="round" stroke-linejoin="round"/>
<path d="M14.679 18.9999V17.3989C14.679 15.4659 13.112 13.8989 11.179 13.8989H7.5C5.567 13.8989 4 15.4659 4 17.3989V18.9999" stroke="#5D5FEF" stroke-width="1.5" stroke-linecap="round" stroke-linejoin="round"/>
</svg>
