<svg width="24" height="25" viewBox="0 0 24 25" fill="none" xmlns="http://www.w3.org/2000/svg">
<path d="M8 11.3252V7.3252C8 6.26433 8.42143 5.24691 9.17157 4.49677C9.92172 3.74662 10.9391 3.3252 12 3.3252C13.0609 3.3252 14.0783 3.74662 14.8284 4.49677C15.5786 5.24691 16 6.26433 16 7.3252V11.3252M5 13.3252C5 12.7948 5.21071 12.2861 5.58579 11.911C5.96086 11.5359 6.46957 11.3252 7 11.3252H17C17.5304 11.3252 18.0391 11.5359 18.4142 11.911C18.7893 12.2861 19 12.7948 19 13.3252V19.3252C19 19.8556 18.7893 20.3643 18.4142 20.7394C18.0391 21.1145 17.5304 21.3252 17 21.3252H7C6.46957 21.3252 5.96086 21.1145 5.58579 20.7394C5.21071 20.3643 5 19.8556 5 19.3252V13.3252ZM11 16.3252C11 16.5904 11.1054 16.8448 11.2929 17.0323C11.4804 17.2198 11.7348 17.3252 12 17.3252C12.2652 17.3252 12.5196 17.2198 12.7071 17.0323C12.8946 16.8448 13 16.5904 13 16.3252C13 16.06 12.8946 15.8056 12.7071 15.6181C12.5196 15.4306 12.2652 15.3252 12 15.3252C11.7348 15.3252 11.4804 15.4306 11.2929 15.6181C11.1054 15.8056 11 16.06 11 16.3252Z" stroke="#5A5A5A" stroke-width="2" stroke-linecap="round" stroke-linejoin="round"/>
</svg>
