<svg width="24" height="24" viewBox="0 0 21 21" fill="none" xmlns="http://www.w3.org/2000/svg">
<path d="M10.21 4.37608e-05C8.18447 0.00795376 6.20668 0.615794 4.52635 1.74687C2.84601 2.87795 1.53848 4.48155 0.76881 6.35518C-0.000860274 8.2288 -0.19815 10.2885 0.20186 12.2741C0.60186 14.2598 1.58124 16.0824 3.01631 17.5119C4.45138 18.9414 6.27779 19.9137 8.265 20.3059C10.2522 20.6982 12.3111 20.4929 14.1817 19.7159C16.0523 18.939 17.6508 17.6252 18.7753 15.9404C19.8998 14.2557 20.5 12.2756 20.5 10.25C20.4987 8.901 20.2313 7.56544 19.7133 6.31984C19.1952 5.07423 18.4366 3.94301 17.4808 2.99095C16.525 2.03889 15.3909 1.28469 14.1433 0.771474C12.8956 0.258254 11.559 -0.00389624 10.21 4.37608e-05ZM15.5 11.25H11.22V15.52C11.22 15.7852 11.1146 16.0396 10.9271 16.2272C10.7396 16.4147 10.4852 16.52 10.22 16.52C9.9548 16.52 9.7004 16.4147 9.5129 16.2272C9.3254 16.0396 9.22 15.7852 9.22 15.52V11.25H4.94001C4.6748 11.25 4.42043 11.1447 4.23289 10.9571C4.04536 10.7696 3.94001 10.5153 3.94001 10.25C3.94001 9.9848 4.04536 9.7305 4.23289 9.5429C4.42043 9.3554 4.6748 9.25 4.94001 9.25H9.22V4.93004C9.22 4.66482 9.3254 4.41048 9.5129 4.22294C9.7004 4.03541 9.9548 3.93004 10.22 3.93004C10.4852 3.93004 10.7396 4.03541 10.9271 4.22294C11.1146 4.41048 11.22 4.66482 11.22 4.93004V9.21H15.5C15.7652 9.21 16.0196 9.3154 16.2071 9.5029C16.3946 9.6905 16.5 9.9448 16.5 10.21C16.5 10.4753 16.3946 10.7296 16.2071 10.9172C16.0196 11.1047 15.7652 11.21 15.5 11.21V11.25Z" fill="#7879F1"/>
</svg>
