<svg width="20" height="20" viewBox="0 0 30 28" fill="none" xmlns="http://www.w3.org/2000/svg">
<path d="M29 14.125V22.25C29 25.0114 26.7614 27.25 24 27.25H6C3.23858 27.25 1 25.0114 1 22.25V6C1 3.23858 3.23858 1 6 1H15" stroke="black" stroke-width="1.5" stroke-linecap="round"/>
<path fill-rule="evenodd" clip-rule="evenodd" d="M24.3921 2.05014C22.8915 0.649203 20.4595 0.650062 18.96 2.05206L7.36265 12.8976C6.43508 13.7649 5.88975 14.9258 5.83456 16.1508L5.66946 19.8151C5.59429 21.4837 7.02177 22.8748 8.80924 22.8748L12.6548 22.875C14.0666 22.8751 15.4187 22.3426 16.4045 21.3983L27.9086 10.3451C29.3772 8.93835 29.3617 6.68972 27.8739 5.30073L24.3921 2.05014ZM20.442 3.43568C21.1236 2.79841 22.2291 2.79802 22.9112 3.43481L26.393 6.68539C27.0693 7.31675 27.0763 8.33886 26.4087 8.97827L24.0983 11.1914L18.1182 5.60845L20.442 3.43568ZM16.6373 6.99311L8.84469 14.2812C8.28815 14.8016 7.96095 15.4982 7.92783 16.2331L7.76274 19.8975C7.73768 20.4537 8.21351 20.9173 8.80933 20.9174L12.6549 20.9175C13.502 20.9176 14.3132 20.5981 14.9047 20.0315L22.6353 12.5927L16.6373 6.99311Z" fill="black"/>
</svg>
