<svg width="24" height="24" viewBox="0 0 17 17" fill="none" xmlns="http://www.w3.org/2000/svg">
<path d="M16.669 7.96339C16.6702 8.42472 16.537 8.87647 16.2857 9.26339C16.0418 9.65414 15.6882 9.9643 15.269 10.1551L3.47733 15.8717C3.14895 16.0366 2.78646 16.1223 2.419 16.1217C2.26484 16.122 2.11113 16.1052 1.96066 16.0717C1.44587 15.9751 0.97728 15.7115 0.627321 15.3217C0.274846 14.9324 0.0582795 14.4391 0.0101879 13.9162C-0.0378955 13.3932 0.0850963 12.8688 0.360663 12.4217L3.22733 8.43839C3.29355 8.28005 3.32755 8.11005 3.32732 7.93839C3.32764 7.7533 3.28485 7.57072 3.20233 7.40505L0.552321 3.65505C0.278513 3.19964 0.164163 2.666 0.227321 2.13838C0.28428 1.63174 0.500538 1.15626 0.844971 0.780377C1.18941 0.404494 1.64425 0.14761 2.144 0.0467185C2.64655 -0.0518231 3.16724 0.00635192 3.63565 0.213385L15.3023 5.77171C15.7123 5.97272 16.0576 6.28464 16.2992 6.67205C16.5408 7.05947 16.6688 7.5068 16.669 7.96339Z" fill="#3C56A0"/>
</svg>
