<svg width="24" height="24" viewBox="0 0 20 20" fill="none" xmlns="http://www.w3.org/2000/svg">
<path d="M20 9.87908C20.0014 10.4514 19.8416 11.0118 19.5401 11.4918C19.2475 11.9766 18.8232 12.3613 18.3202 12.598L4.17221 19.6899C3.77821 19.8944 3.34329 20.0007 2.90239 20C2.71742 20.0003 2.533 19.9795 2.35246 19.938C1.7348 19.818 1.17257 19.4911 0.75268 19.0075C0.329769 18.5246 0.0699256 17.9126 0.0122237 17.2639C-0.0454682 16.6151 0.102101 15.9646 0.432735 15.4099L3.87225 10.4683C3.95171 10.2719 3.99249 10.061 3.99222 9.84806C3.9926 9.61845 3.94126 9.39195 3.84225 9.18643L0.662692 4.53432C0.334169 3.96936 0.196968 3.30734 0.272747 2.65279C0.341087 2.02428 0.600561 1.43441 1.01382 0.968106C1.42709 0.5018 1.97282 0.18312 2.57243 0.0579573C3.17541 -0.0642898 3.80015 0.00787995 4.36217 0.264718L18.3602 7.16017C18.8521 7.40953 19.2664 7.79649 19.5563 8.2771C19.8461 8.75771 19.9998 9.31266 20 9.87908Z" fill="#7879F1"/>
</svg>
