<svg width="24" height="24" viewBox="3 3 22 22" fill="none" xmlns="http://www.w3.org/2000/svg">
<path d="M7.04536 7.44726C5.65338 8.91873 4.72856 10.7696 4.3877 12.7663C4.04684 14.763 4.30523 16.8159 5.1302 18.6658C5.95516 20.5158 7.30977 22.0798 9.02291 23.1605C10.7361 24.2412 12.7311 24.79 14.756 24.7377C16.7808 24.6855 18.7449 24.0345 20.4 22.8669C22.0552 21.6993 23.3273 20.0675 24.0557 18.1774C24.7842 16.2875 24.9364 14.2239 24.4929 12.2475C24.0495 10.2711 23.0306 8.47032 21.5645 7.07257C20.5872 6.14264 19.4361 5.41459 18.1771 4.92998C16.9181 4.44545 15.5759 4.21391 14.2272 4.24873C12.8786 4.28354 11.5502 4.58394 10.3178 5.13277C9.08542 5.68168 7.97337 6.46817 7.04536 7.44726ZM18.8381 11.3815L15.8847 14.4792L18.9752 17.4257C19.1671 17.6087 19.2785 17.8605 19.2849 18.1257C19.2912 18.3907 19.1919 18.6475 19.0089 18.8395C18.8259 19.0314 18.5741 19.1429 18.3091 19.1492C18.0439 19.1555 17.787 19.0562 17.5951 18.8732L14.5046 15.9267L11.5512 19.0245C11.3682 19.2164 11.1165 19.3279 10.8513 19.3341C10.5862 19.3405 10.3294 19.2413 10.1374 19.0582C9.94547 18.8752 9.83411 18.6235 9.82773 18.3583C9.82144 18.0932 9.92068 17.8363 10.1037 17.6444L13.0571 14.5466L9.9304 11.5657C9.73844 11.3827 9.62709 11.1309 9.62074 10.8658C9.61439 10.6007 9.71367 10.3438 9.89667 10.1519C10.0797 9.95994 10.3315 9.84852 10.5966 9.84222C10.8617 9.83592 11.1185 9.93514 11.3105 10.1182L14.4082 13.0715L17.3616 9.97377C17.5446 9.78183 17.7964 9.67043 18.0615 9.66411C18.3267 9.65785 18.5834 9.75705 18.7754 9.94005C18.9674 10.1231 19.0787 10.3749 19.0851 10.64C19.0914 10.9051 18.9921 11.1619 18.8091 11.3539L18.8381 11.3815Z" fill="#3C56A0"/>
</svg>
