<svg width="26" height="25" viewBox="0 0 26 25" fill="none" xmlns="http://www.w3.org/2000/svg">
<path d="M10.7972 16.3457H17.1329M4.46155 8.64062H7.62938M4.46155 12.4932H7.62938M4.46155 16.3457H7.62938M21.3567 6.71435V18.272C21.3567 18.7828 21.1342 19.2728 20.7381 19.634C20.342 19.9953 19.8049 20.1982 19.2448 20.1982H8.68532C8.12522 20.1982 7.58805 19.9953 7.19199 19.634C6.79594 19.2728 6.57344 18.7828 6.57344 18.272V6.71435C6.57344 6.20348 6.79594 5.71352 7.19199 5.35228C7.58805 4.99103 8.12522 4.78809 8.68532 4.78809H19.2448C19.8049 4.78809 20.342 4.99103 20.7381 5.35228C21.1342 5.71352 21.3567 6.20348 21.3567 6.71435ZM11.8532 11.53C11.8532 12.0409 12.0757 12.5309 12.4717 12.8921C12.8678 13.2533 13.4049 13.4563 13.965 13.4563C14.5252 13.4563 15.0623 13.2533 15.4584 12.8921C15.8544 12.5309 16.0769 12.0409 16.0769 11.53C16.0769 11.0191 15.8544 10.5292 15.4584 10.1679C15.0623 9.8067 14.5252 9.60375 13.965 9.60375C13.4049 9.60375 12.8678 9.8067 12.4717 10.1679C12.0757 10.5292 11.8532 11.0191 11.8532 11.53Z" stroke="#FFB547" stroke-width="2" stroke-linecap="round" stroke-linejoin="round"/>
</svg>
